<svg width="217" height="292" viewBox="0 0 217 292" fill="none" xmlns="http://www.w3.org/2000/svg">
<path d="M12.1914 261.322L12.1918 261.323C15.9628 271.323 20.7685 278.868 26.6316 283.916C32.5042 288.971 39.4138 291.5 47.3371 291.5C55.3627 291.5 62.3408 288.905 68.2473 283.719C74.1438 278.541 78.9485 270.801 82.6853 260.543C90.1543 240.039 93.8726 208.757 93.8726 166.742L93.8726 120.218L93.8726 120.215C93.6715 79.6226 89.8526 49.5658 82.3811 30.093C78.6427 20.2853 73.8442 12.8853 67.9629 7.93531C62.0727 2.9777 55.1224 0.5 47.136 0.5C39.0793 0.5 32.077 3.0607 26.1534 8.18192C20.2393 13.2948 15.4253 20.9377 11.688 31.0676C4.21833 51.3137 0.5 82.2086 0.5 123.707L0.499989 171.588L0.500011 171.592C0.768167 211.284 4.65502 241.208 12.1914 261.322ZM67.6669 51.5521L67.6673 51.5534C72.0649 65.303 74.2775 87.336 74.2775 117.698V176.433C74.0764 205.888 71.7304 227.404 67.2663 241.025L67.2657 241.027C65.0676 247.835 62.2934 252.891 58.9686 256.239C55.6564 259.575 51.7866 261.229 47.3371 261.229C38.3661 261.229 31.5128 254.284 26.9068 239.867C22.3741 225.338 20.0951 202.851 20.0951 172.364V114.985C20.2292 86.307 22.4744 65.1107 26.8065 51.3574C28.9708 44.4863 31.7612 39.3841 35.1509 36.0048C38.528 32.6382 42.515 30.9652 47.136 30.9652C51.7903 30.9652 55.8109 32.6541 59.2217 36.0534C62.6452 39.4651 65.4691 44.6161 67.6669 51.5521ZM216.5 192.33V191.83H216H196.196V4.87701V4.37701H195.696H175.895H175.535L175.421 4.71816L109.885 200.313L109.86 200.39V200.472V221.602V222.102H110.36H176.5V287.123V287.623H177H195.696H196.196V287.123V222.102H216H216.5V221.602V192.33ZM175.264 61.8325L175.267 61.8224L175.27 61.8123L176.5 57.4976V191.83H132.16L175.264 61.8325Z" stroke="#DD978F" stroke-opacity="0.3"/>
</svg>
