<svg width="218" height="293" viewBox="0 0 218 293" fill="none" xmlns="http://www.w3.org/2000/svg">
<path d="M29.2061 21.8096L29.2039 21.8127C19.9911 34.7165 12.9119 52.1795 7.94681 74.175C2.98079 95.8897 0.5 120.166 0.5 147C0.5 171.833 2.37924 195.244 6.1392 217.232C9.90081 239.229 15.9995 257.258 24.4515 271.299C32.9265 285.379 43.8084 292.5 57.0952 292.5C69.9277 292.5 80.954 285.526 90.1766 271.747C99.3858 257.989 106.388 239.529 111.202 216.394L111.202 216.393C116.016 192.972 118.421 167.131 118.421 138.873C118.421 113.183 116.242 90.0504 111.878 69.4793C107.664 48.9086 101.337 32.5837 92.8737 20.5327C84.3942 8.45808 74.1178 2.35545 62.0514 2.35545C49.531 2.35545 38.582 8.88924 29.2061 21.8096ZM86.1256 235.405L86.1252 235.407C82.9794 246.783 79.1535 255.264 74.6704 260.892C70.1981 266.506 65.0935 269.258 59.348 269.258C53.5251 269.258 48.3641 266.504 43.8555 260.89C39.3357 255.263 35.4912 246.783 32.3456 235.407C26.0541 212.654 22.9018 183.475 22.9018 147.855C22.9018 112.236 26.054 82.9141 32.346 59.8751L32.3464 59.8736C35.4925 48.2113 39.3378 39.5163 43.8592 33.7464C48.3699 27.9902 53.5303 25.1696 59.348 25.1696C65.0883 25.1696 70.1923 27.9878 74.6667 33.7449C79.1513 39.5152 82.9781 48.2108 86.1244 59.8736L86.1256 59.878C92.5671 82.9158 95.7943 112.237 95.7943 147.855C95.7943 183.188 92.5672 212.367 86.1256 235.405ZM162.182 272.722L161.818 272.881L161.891 273.272L164.369 286.531L164.446 286.94H164.861H213.747H214.102L214.219 286.605L216.472 280.189L216.528 280.029L216.475 279.867L214.222 273.024L214.216 273.005L214.209 272.987C210.771 264.759 208.379 255.96 207.033 246.59C205.686 237.214 205.011 224.551 205.011 208.593V23.1354L210.081 16.8569L210.235 16.6663L210.179 16.4279C209.197 12.2693 208.02 8.94101 206.637 6.46148C205.256 3.98508 203.644 2.31025 201.773 1.53782L201.484 1.41876L201.251 1.62558L144.705 51.6698L144.477 51.8714L144.551 52.1664C146.21 58.7501 148.247 64.6266 150.666 69.7931C153.084 74.9577 155.87 78.1267 159.092 79.0443L159.409 79.1346L159.617 78.8786L183.735 49.1759V235.112C183.735 243.371 183.36 249.609 182.617 253.842C181.875 257.784 180.623 260.835 178.887 263.032L178.88 263.04L178.874 263.049C177.292 265.234 174.673 267.183 170.965 268.874C170.964 268.874 170.963 268.875 170.962 268.875L162.182 272.722Z" stroke="#DD978F" stroke-opacity="0.3"/>
</svg>
