<svg width="219" height="293" viewBox="0 0 219 293" fill="none" xmlns="http://www.w3.org/2000/svg">
<path d="M24.424 278.008L23.9945 278.156L24.0999 278.597L27.3265 292.116L27.4181 292.5H27.8128H91.4649H91.7887L91.9212 292.205L94.8544 285.663L94.9433 285.465L94.8591 285.265L91.9259 278.287L91.9169 278.266L91.9061 278.246C87.4332 269.861 84.3211 260.898 82.5702 251.353C80.8181 241.802 79.9385 228.899 79.9385 212.632V23.58L86.5331 17.186L86.7516 16.9741L86.6637 16.6827C84.1132 8.22381 80.5278 3.05903 75.779 1.52423L75.5437 1.44818L75.3404 1.58904L1.7152 52.6116L1.41049 52.8227L1.52402 53.1757C3.685 59.8932 6.3397 65.8887 9.4907 71.1588C12.6536 76.4489 16.2695 79.6335 20.3708 80.5482L20.6332 80.6067L20.8267 80.4201L52.539 49.8384V239.669C52.539 248.087 52.0502 254.438 51.0853 258.744C50.1234 262.746 48.4982 265.852 46.2338 268.096L46.2261 268.104L46.2187 268.112C44.1471 270.352 40.715 272.352 35.8605 274.085C35.8597 274.085 35.8588 274.085 35.858 274.085L24.424 278.008ZM147.026 278.008L146.596 278.156L146.702 278.597L149.928 292.116L150.02 292.5H150.415H214.067H214.39L214.523 292.205L217.456 285.663L217.545 285.465L217.461 285.265L214.528 278.287L214.519 278.266L214.508 278.246C210.035 269.861 206.923 260.898 205.172 251.353C203.42 241.802 202.54 228.899 202.54 212.632V23.58L209.135 17.186L209.353 16.9741L209.266 16.6827C206.715 8.22381 203.13 3.05903 198.381 1.52423L198.145 1.44818L197.942 1.58904L124.317 52.6116L124.012 52.8227L124.126 53.1757C126.287 59.8932 128.941 65.8887 132.092 71.1588C135.255 76.4489 138.871 79.6335 142.973 80.5482L143.235 80.6067L143.429 80.4201L175.141 49.8384V239.669C175.141 248.087 174.652 254.437 173.687 258.743C172.725 262.746 171.1 265.852 168.836 268.096L168.828 268.104L168.821 268.112C166.749 270.352 163.317 272.352 158.462 274.085C158.461 274.085 158.461 274.085 158.46 274.085L147.026 278.008Z" stroke="#DD978F" stroke-opacity="0.3"/>
</svg>
