<svg width="217" height="292" viewBox="0 0 217 292" fill="none" xmlns="http://www.w3.org/2000/svg">
<path d="M188.284 171.826L188.282 171.824C183.014 161.978 176.174 157.162 167.773 157.162C159.369 157.162 152.564 161.916 147.367 171.63C147.367 171.63 147.367 171.63 147.367 171.63L146.926 171.394L188.284 171.826ZM188.284 171.826C193.625 181.681 196.313 194.45 196.313 210.164M188.284 171.826L196.313 210.164M196.313 210.164C196.313 226.014 193.761 238.52 188.701 247.723C183.655 256.771 176.753 261.229 167.98 261.229C159.137 261.229 152.202 256.77 147.157 247.724L196.313 210.164ZM12.5645 261.327L12.5649 261.328C16.4566 271.33 21.4157 278.875 27.4639 283.921C33.521 288.974 40.6449 291.5 48.8124 291.5C57.0853 291.5 64.2799 288.908 70.3719 283.724C76.4548 278.547 81.4129 270.807 85.2693 260.548C92.9768 240.042 96.8136 208.758 96.8136 166.742L96.8136 120.218L96.8136 120.215C96.606 79.6221 92.6655 49.5632 84.9554 30.0884C81.0974 20.2788 76.1456 12.8792 70.0787 7.9304C64.0037 2.97501 56.8378 0.5 48.6049 0.5C40.2997 0.5 33.0802 3.05785 26.9705 8.1769C20.8696 13.2886 15.902 20.9312 12.045 31.0627C4.33674 51.3109 0.5 82.208 0.5 123.707L0.499988 171.588L0.500012 171.592C0.776711 211.285 4.78738 241.21 12.5645 261.327ZM69.806 51.5565L69.8064 51.5578C74.3433 65.3054 76.6264 87.3364 76.6264 117.698V176.433C76.4189 205.887 73.9983 227.401 69.3927 241.02L69.392 241.022C67.1245 247.829 64.2625 252.885 60.8311 256.234C57.4118 259.571 53.4131 261.229 48.8124 261.229C39.5357 261.229 32.4647 254.271 27.7151 239.862C23.0387 225.336 20.6872 202.85 20.6872 172.364V114.985C20.8255 86.3076 23.1422 65.1131 27.6116 51.3618C29.8442 44.4922 32.723 39.3903 36.2214 36.0103C39.7077 32.642 43.8273 30.9652 48.6049 30.9652C53.4168 30.9652 57.5711 32.658 61.0922 36.0588C64.6255 39.4714 67.5387 44.6221 69.806 51.5565ZM132.599 269.545L132.601 269.548C141.455 284.142 153.254 291.5 167.98 291.5C182.57 291.5 194.298 284.141 203.151 269.55C212.066 254.97 216.5 235.419 216.5 210.94C216.5 195.512 214.176 181.687 209.519 169.473C205.019 157.495 198.901 148.294 191.145 141.905C197.793 135.667 203.049 127.129 206.928 116.317C210.962 105.268 212.974 92.673 212.974 78.5401C212.974 54.7113 208.852 35.7446 200.563 21.6827C192.337 7.61179 181.474 0.5 167.98 0.5C154.418 0.5 143.52 7.61099 135.293 21.6835C127.074 35.7451 122.987 54.7114 122.987 78.5401C122.987 92.543 124.929 105.072 128.823 116.119C132.634 126.931 137.822 135.47 144.403 141.709C136.646 148.103 130.561 157.371 126.129 169.478L126.128 169.48C121.68 181.82 119.46 195.642 119.46 210.94C119.46 235.289 123.825 254.838 132.599 269.545ZM185.894 113.784L186.338 114.015L185.894 113.784C181.387 122.463 175.412 126.697 167.98 126.697C160.548 126.697 154.538 122.463 149.963 113.784C145.449 104.962 143.174 93.4178 143.174 79.1217C143.174 64.1733 145.485 52.4407 150.064 43.8829C154.711 35.1969 160.688 30.9652 167.98 30.9652C175.053 30.9652 180.965 35.3119 185.688 44.268C190.409 53.2194 192.787 64.8272 192.787 79.1217C192.787 93.4184 190.477 104.962 185.894 113.784Z" stroke="#DD978F" stroke-opacity="0.3"/>
</svg>
