<svg width="217" height="292" viewBox="0 0 217 292" fill="none" xmlns="http://www.w3.org/2000/svg">
<path d="M59.4842 291.5H59.9842V291V3.5542V3.0542H59.4842H56.4501H56.2916L56.162 3.14557L0.711867 42.2445L0.5 42.3939V42.6531V75.6612V76.6135L1.2839 76.0728L39.5243 49.6962V291V291.5H40.0243H59.4842ZM216 291.5H216.5V291V261.332V260.832H216H140.323L180.772 178.443C199.901 139.505 209.49 105.894 209.49 77.626C209.49 54.389 205.367 35.7562 197.075 21.7681C188.771 7.62798 177.426 0.5 163.061 0.5C147.7 0.5 135.452 8.76182 126.32 25.1194L126.319 25.1209C117.267 41.4617 112.76 62.8389 112.76 89.2182V89.7182H113.26H132.616H133.116V89.2182C133.116 70.9179 135.762 56.732 141.011 46.6165C146.317 36.3924 153.665 31.3645 163.061 31.3645C170.829 31.3645 177.104 35.973 181.865 45.4321C186.631 54.9023 189.03 67.0653 189.03 81.9485C189.03 93.0367 187.537 103.797 184.551 114.23L184.551 114.231C181.632 124.54 176.275 138.002 168.468 154.626C168.468 154.627 168.468 154.628 168.467 154.629L115.739 264.652L115.69 264.755V264.869V291V291.5H116.19H216Z" stroke="#DD978F" stroke-opacity="0.3"/>
</svg>
