<svg width="217" height="292" viewBox="0 0 217 292" fill="none" xmlns="http://www.w3.org/2000/svg">
<path d="M140.033 181.016L140.031 181.014C133.47 172.925 128.414 161.605 124.839 147.089L124.839 147.088C121.264 132.44 119.479 116.31 119.479 98.7005C119.479 79.7992 121.404 62.7627 125.259 47.5947L125.26 47.5926C129.185 32.428 134.734 20.779 141.933 12.6864C149.143 4.58247 157.589 0.5 167.255 0.5C182.649 0.5 194.66 11.1978 203.358 32.2122C203.359 32.2123 203.359 32.2124 203.359 32.2125L202.897 32.4037C211.632 53.2103 216 81.6417 216 117.698V128.166C216 183.09 210.13 223.217 198.389 248.547L140.033 181.016ZM140.033 181.016C146.679 189.122 154.499 193.218 163.482 193.218C170.341 193.218 176.611 190.438 182.278 184.936C187.525 179.905 192.076 173.401 195.938 165.437M140.033 181.016L195.938 165.437M195.938 165.437C194.999 196.497 190.342 219.248 182.022 233.758C173.507 248.481 161.36 256.063 145.548 256.576L195.938 165.437ZM12.6942 261.329L12.6946 261.33C16.6283 271.332 21.6406 278.877 27.7533 283.922C33.8744 288.975 41.0727 291.5 49.3252 291.5C57.6842 291.5 64.954 288.909 71.1106 283.725C77.2581 278.549 82.2696 270.81 86.1675 260.549C93.958 240.043 97.8359 208.758 97.8359 166.742L97.8359 120.218L97.8359 120.215C97.6262 79.6218 93.6434 49.5622 85.8503 30.0867C81.9507 20.2766 76.9457 12.8771 70.8143 7.92875C64.675 2.97413 57.4342 0.5 49.1156 0.5C40.7238 0.5 33.4288 3.05693 27.2545 8.17522C21.0887 13.2865 16.0677 20.929 12.1691 31.0611C4.37791 51.31 0.5 82.2077 0.5 123.707L0.499988 171.588L0.500012 171.592C0.779681 211.285 4.83339 241.211 12.6942 261.329ZM70.5496 51.558L70.5501 51.5593C75.1354 65.3062 77.4429 87.3365 77.4429 117.698V176.433C77.2333 205.887 74.7867 227.401 70.1319 241.019L70.1312 241.021C67.8395 247.827 64.947 252.883 61.4785 256.232C58.022 259.57 53.9785 261.229 49.3252 261.229C39.9424 261.229 32.7957 254.267 27.9961 239.861C23.2697 225.336 20.893 202.85 20.893 172.364V114.985C21.0327 86.3078 23.3743 65.1139 27.8914 51.3633C30.1479 44.4943 33.0573 39.3924 36.5935 36.0122C40.1179 32.6433 44.2836 30.9652 49.1156 30.9652C53.9821 30.9652 58.1829 32.6592 61.7424 36.0607C65.3139 39.4735 68.2582 44.6242 70.5496 51.558ZM184.152 151.709L184.15 151.712C178.752 159.006 172.909 162.559 166.627 162.559C158.553 162.559 151.97 156.606 146.964 144.263C142.033 131.806 139.557 115.978 139.557 96.762C139.557 77.0258 142.139 61.2052 147.274 49.2725L147.274 49.2707C152.416 37.1925 159.135 31.3529 167.36 31.3529C175.467 31.3529 182.343 38.4118 187.857 53.1273C193.35 67.7833 196.107 86.8442 196.107 110.332V124.619C193.603 135.397 189.614 144.422 184.152 151.709Z" stroke="#DD978F" stroke-opacity="0.3"/>
</svg>
