<svg width="217" height="292" viewBox="0 0 217 292" fill="none" xmlns="http://www.w3.org/2000/svg">
<path d="M12.3864 261.325L12.3867 261.326C16.2208 271.327 21.1067 278.872 27.0665 283.918C33.0355 288.973 40.0571 291.5 48.1079 291.5C56.2627 291.5 63.3539 288.907 69.3574 283.721C75.3512 278.544 80.2362 270.804 84.0354 260.545C91.629 240.04 95.4092 208.758 95.4092 166.742L95.4092 120.218L95.4092 120.215C95.2048 79.6217 91.3222 49.5635 83.7258 30.0897C79.9249 20.2814 75.0465 12.8819 69.0684 7.93271C63.0816 2.97626 56.0187 0.5 47.9035 0.5C39.717 0.5 32.6012 3.05918 26.5803 8.17926C20.5686 13.2915 15.6744 20.9343 11.8745 31.065C4.2802 51.3122 0.5 82.2083 0.5 123.707L0.499988 171.588L0.500012 171.592C0.772631 211.284 4.72417 241.209 12.3864 261.325ZM68.7845 51.5544L68.785 51.5557C73.2553 65.3042 75.5048 87.3362 75.5048 117.698V176.433C75.3003 205.888 72.9154 227.403 68.3773 241.022L68.3766 241.025C66.1423 247.832 63.3222 252.888 59.9417 256.236C56.5736 259.573 52.6365 261.229 48.1079 261.229C38.9772 261.229 32.0102 254.277 27.3292 239.865C22.7213 225.337 20.4045 202.851 20.4045 172.364V114.985C20.5407 86.3073 22.8233 65.1119 27.2271 51.3597C29.4272 44.4894 32.2637 39.3873 35.7102 36.0077C39.1443 32.6403 43.2006 30.9652 47.9035 30.9652C52.6401 30.9652 56.7306 32.6562 60.1991 36.0563C63.6799 39.4684 66.5505 44.6193 68.7845 51.5544ZM127.314 145.585L127.296 145.917L127.594 146.062L142.718 153.428L143.116 153.622L143.357 153.25L148.356 145.508C148.357 145.506 148.359 145.504 148.36 145.502C152.968 138.791 159.285 135.451 167.359 135.451C176.08 135.451 183.129 141.005 188.468 152.415L188.47 152.419C193.875 163.699 196.596 178.737 196.596 197.564C196.596 217.563 194.077 233.186 189.077 244.467L189.076 244.469C184.144 255.748 177.4 261.229 168.892 261.229C161.064 261.229 154.74 257.283 149.906 249.26C145.06 241.087 142.037 228.965 140.881 212.843L140.848 212.378H140.382H122.5H121.975L122 212.902C123.16 237.371 127.905 256.589 136.275 270.516C144.653 284.454 155.527 291.5 168.892 291.5C183.985 291.5 195.68 283.005 203.981 266.215C212.34 249.318 216.5 226.293 216.5 197.176C216.5 168.191 212.511 145.169 204.497 128.147C196.481 110.993 185.579 102.271 171.753 102.271C162.725 102.271 154.638 106.075 147.503 113.614L151.89 38.5254H211.606H212.106V38.0254V4.87701V4.37701H211.606H135.375H134.901L134.876 4.85018L127.314 145.585Z" stroke="#DD978F" stroke-opacity="0.3"/>
</svg>
