<svg width="218" height="293" viewBox="0 0 218 293" fill="none" xmlns="http://www.w3.org/2000/svg">
<path d="M111.069 74.1791C106.287 95.8922 103.898 120.167 103.898 147C103.898 171.832 105.708 195.242 109.329 217.229C112.951 239.224 118.824 257.252 126.963 271.292C135.123 285.368 145.607 292.5 158.421 292.5C170.796 292.5 181.42 285.516 190.3 271.74C199.169 257.982 205.912 239.524 210.548 216.39L210.548 216.389C215.184 192.969 217.5 167.13 217.5 138.873C217.5 113.184 215.401 90.0531 211.199 69.4834C207.141 48.9142 201.048 32.5905 192.898 20.5399C184.733 8.46711 174.831 2.35545 163.194 2.35545C151.12 2.35545 140.57 8.89833 131.542 21.8168L131.54 21.82C122.668 34.7233 115.851 52.1851 111.069 74.1791ZM111.069 74.1791C111.069 74.1794 111.069 74.1796 111.069 74.1799L111.558 74.2861L111.069 74.1786C111.069 74.1787 111.069 74.1789 111.069 74.1791ZM18.4988 272.725L18.1449 272.886L18.2138 273.269L20.6003 286.528L20.6744 286.94H21.0924H68.1726H68.5314L68.6463 286.6L70.8159 280.184L70.8683 280.029L70.8188 279.873L68.6492 273.029L68.6435 273.011L68.6365 272.993C65.326 264.764 63.0217 255.964 61.7252 246.592C60.428 237.215 59.7773 224.552 59.7773 208.593V23.1302L64.662 16.8497L64.8074 16.6628L64.7549 16.4319C63.8095 12.2743 62.6762 8.9471 61.345 6.46844C60.0162 3.99432 58.4632 2.31589 56.6538 1.54043L56.3566 1.41305L56.1185 1.63185L1.66168 51.6761L1.44458 51.8756L1.51409 52.1621C3.11104 58.745 5.07293 64.6208 7.40209 69.7866C9.72854 74.9465 12.4123 78.1219 15.5267 79.0429L15.8528 79.1393L16.0623 78.8714L39.2509 49.218V235.112C39.2509 243.372 38.8894 249.611 38.1736 253.846C37.4589 257.789 36.2518 260.842 34.5799 263.039L34.5736 263.048L34.5677 263.056C33.0441 265.241 30.5245 267.188 26.9564 268.877C26.9554 268.877 26.9544 268.878 26.9534 268.878L18.4988 272.725ZM186.36 235.41L186.359 235.411C183.329 246.789 179.644 255.271 175.327 260.899C171.019 266.514 166.109 269.258 160.591 269.258C154.997 269.258 150.033 266.512 145.69 260.898C141.337 255.27 137.634 246.789 134.605 235.411C128.545 212.656 125.509 183.476 125.509 147.855C125.509 112.235 128.545 82.9114 134.605 59.8705L134.605 59.8691C137.636 48.2054 141.339 39.5093 145.694 33.7392C150.039 27.9821 155.003 25.1696 160.591 25.1696C166.104 25.1696 171.013 27.9795 175.323 33.7377C179.642 39.5082 183.328 48.2049 186.359 59.8691L186.36 59.8734C192.564 82.9131 195.672 112.236 195.672 147.855C195.672 183.189 192.564 212.37 186.36 235.41Z" stroke="#DD978F" stroke-opacity="0.3"/>
</svg>
