<svg width="217" height="292" viewBox="0 0 217 292" fill="none" xmlns="http://www.w3.org/2000/svg">
<path d="M24.4744 20.0461L24.4725 20.0492C16.7779 32.9877 10.8661 50.4958 6.71956 72.549C2.57211 94.3211 0.5 118.663 0.5 145.571C0.5 170.474 2.0697 193.949 5.21017 215.997C8.35165 238.051 13.4446 256.126 20.503 270.203C27.5722 284.303 36.68 291.5 47.8635 291.5C58.6647 291.5 67.8958 284.453 75.5903 270.652C83.2814 256.857 89.129 238.35 93.1495 215.153L93.1496 215.152C97.1703 191.668 99.1794 165.757 99.1794 137.42C99.1794 111.659 97.3587 88.4639 93.7142 67.8384C90.1954 47.2144 84.9116 30.8482 77.8436 18.7653C70.7679 6.66912 62.1615 0.5 52.0041 0.5C41.4674 0.5 32.2986 7.1018 24.4744 20.0461ZM72.0317 234.259L72.0314 234.261C69.4018 245.677 66.2032 254.189 62.4564 259.836C58.7146 265.475 54.4741 268.192 49.7456 268.192C44.9517 268.192 40.6644 265.472 36.8926 259.834C33.1152 254.188 29.9011 245.677 27.2716 234.261C22.0135 211.431 19.3797 182.158 19.3797 146.429C19.3797 110.7 22.0134 81.2831 27.2719 58.1671L27.2722 58.1658C29.902 46.4627 33.1168 37.7359 36.8957 31.9464C40.6702 26.1638 44.9575 23.3787 49.7456 23.3787C54.4683 23.3787 58.7088 26.1606 62.4533 31.9448C66.2016 37.7348 69.4009 46.4623 72.0308 58.1658L72.0317 58.1696C77.4151 81.2846 80.1116 110.701 80.1116 146.429C80.1116 181.871 77.4152 211.144 72.0317 234.259ZM127.29 265.454L127.202 265.619L127.244 265.801L131.76 285.535L131.849 285.923H132.248H210.354H210.652L210.794 285.661C212.84 281.871 214.295 276.802 215.178 270.477L215.178 270.474C216.059 263.874 216.5 257.131 216.5 250.246V249.746H216H152.467C171.856 213.431 186.791 181.481 197.27 153.9C207.953 125.826 213.301 99.1678 213.301 73.929C213.301 50.4367 209.532 32.315 201.938 19.6203C194.46 6.91073 184.209 0.5 171.207 0.5C164.169 0.5 157.596 3.12865 151.497 8.34182C145.388 13.563 140.455 21.3688 136.672 31.7159L136.67 31.721C133.007 42.0849 131.183 54.5854 131.183 69.2101C131.183 81.2639 132.882 91.2054 136.307 99.0115L136.31 99.0177C139.847 106.792 144.302 110.893 149.751 110.893C150.517 110.893 151.17 110.857 151.704 110.781C152.228 110.707 152.678 110.588 153.01 110.399L153.058 110.371L153.099 110.334C153.527 109.944 153.792 109.321 153.957 108.57C154.124 107.806 154.204 106.837 154.204 105.675C154.204 105.181 154.064 104.378 153.814 103.308C153.56 102.223 153.181 100.819 152.678 99.0993C151.679 95.686 150.805 91.9851 150.055 87.9963C149.309 83.7449 148.934 78.486 148.934 72.213C148.934 56.5194 151.189 44.4581 155.652 35.9815L155.655 35.9755C160.143 27.1656 165.346 22.9497 171.207 22.9497C176.928 22.9497 182.008 27.2884 186.377 36.3938L186.38 36.3994C190.722 45.1665 192.915 57.5189 192.915 73.5C192.915 90.3401 191.225 106.75 187.844 122.731C184.465 138.705 178.079 157.979 168.675 180.556C159.273 203.129 145.48 231.427 127.29 265.454Z" stroke="#DD978F" stroke-opacity="0.3"/>
</svg>
