<svg width="217" height="292" viewBox="0 0 217 292" fill="none" xmlns="http://www.w3.org/2000/svg">
<path d="M12.4318 261.326L12.4322 261.327C16.281 271.328 21.1855 278.872 27.1679 283.919C33.1594 288.973 40.2071 291.5 48.2877 291.5C56.4726 291.5 63.5902 288.907 69.6163 283.722C75.6329 278.545 80.5365 270.805 84.3503 260.546C91.973 240.041 95.7677 208.758 95.7677 166.742L95.7677 120.218L95.7676 120.215C95.5624 79.6223 91.6652 49.5642 84.0399 30.0901C80.2244 20.2812 75.3272 12.8814 69.3262 7.93211C63.3169 2.97594 56.2278 0.5 48.0825 0.5C39.8657 0.5 32.7234 3.05883 26.6799 8.17866C20.6455 13.2908 15.7325 20.9335 11.918 31.0645C4.29463 51.3119 0.5 82.2082 0.5 123.707L0.499988 171.588L0.500012 171.592C0.773672 211.284 4.74031 241.209 12.4318 261.326ZM69.0452 51.5549L69.0457 51.5562C73.533 65.3045 75.791 87.3363 75.791 117.698V176.433C75.5858 205.888 73.1917 227.402 68.6365 241.022L68.6358 241.024C66.393 247.831 63.5622 252.887 60.1687 256.236C56.7875 259.572 52.8347 261.229 48.2877 261.229C39.1197 261.229 32.1262 254.276 27.4277 239.864C22.8023 225.337 20.4766 202.85 20.4766 172.364V114.985C20.6134 86.3074 22.9047 65.1122 27.3252 51.3602C29.5336 44.4901 32.3809 39.3881 35.8407 36.0084C39.2881 32.6407 43.3606 30.9652 48.0825 30.9652C52.8384 30.9652 56.9451 32.6566 60.427 36.0569C63.9212 39.4692 66.8027 44.62 69.0452 51.5549ZM216.487 25.1523L216.5 25.0956V25.0374V4.87701V4.37701H216H115.065H114.565V4.87701V34.3422V34.8422H115.065H195.258L133.761 287.005L133.61 287.623H134.247H154.146H154.542L154.633 287.238L216.487 25.1523Z" stroke="#DD978F" stroke-opacity="0.3"/>
</svg>
