<svg width="217" height="292" viewBox="0 0 217 292" fill="none" xmlns="http://www.w3.org/2000/svg">
<path d="M24.7508 20.0439L24.749 20.047C16.9656 32.9858 10.9855 50.4945 6.7912 72.5482C2.59596 94.3207 0.5 118.662 0.5 145.571C0.5 170.474 2.08778 193.949 5.26445 215.997C8.44214 238.052 13.5938 256.127 20.7337 270.205C27.8851 284.306 37.0968 291.5 48.403 291.5C59.3225 291.5 68.6587 284.456 76.4426 270.654C84.2225 256.859 90.1376 238.351 94.2044 215.154L94.2045 215.153C98.2715 191.669 100.304 165.757 100.304 137.42C100.304 111.658 98.462 88.4627 94.7754 67.8366C91.2161 47.2125 85.8713 30.8461 78.7219 18.7631C71.564 6.66569 62.8598 0.5 52.5912 0.5C41.9389 0.5 32.6659 7.09837 24.7508 20.0439ZM72.8552 234.258L72.8549 234.259C70.1952 245.676 66.9599 254.187 63.1701 259.834C59.3857 265.472 55.095 268.192 50.3067 268.192C45.4524 268.192 41.1142 265.469 37.2995 259.832C33.4787 254.186 30.2278 245.675 27.5681 234.259C22.2496 211.431 19.5855 182.158 19.5855 146.429C19.5855 110.7 22.2495 81.2838 27.5684 58.1683L27.5687 58.167C30.2287 46.4642 33.4804 37.7378 37.3027 31.9486C41.1199 26.1669 45.4582 23.3787 50.3067 23.3787C55.0892 23.3787 59.38 26.1638 63.167 31.947C66.9583 37.7368 70.1943 46.4638 72.8543 58.167L72.8552 58.1709C78.3005 81.2853 81.028 110.701 81.028 146.429C81.028 181.871 78.3006 211.143 72.8552 234.258ZM137.671 262.439L137.674 262.444C141.504 271.938 146.498 279.168 152.675 284.098C158.844 289.022 165.488 291.5 172.595 291.5C186.132 291.5 196.816 284.654 204.629 271.089C212.561 257.538 216.5 238.418 216.5 213.781C216.5 195.719 214.019 179.928 209.045 166.419C204.181 153.212 197.161 144.057 187.946 139.039C195.873 132.16 202.013 122.95 206.378 111.429L206.379 111.425C210.847 99.3439 213.073 84.9824 213.073 68.3521C213.073 54.0114 211.101 41.7924 207.139 31.7095C203.312 21.3619 198.257 13.5567 191.951 8.33674C185.661 3.13005 179.079 0.5 172.214 0.5C161.982 0.5 153.277 5.76642 146.102 16.1597C138.916 26.5706 135.353 41.1276 135.353 59.7722C135.353 71.8266 137.071 81.7689 140.536 89.5756L140.539 89.5818C144.12 97.3647 148.691 101.456 154.319 101.456C155.643 101.456 156.71 101.017 157.429 100.08C158.128 99.1683 158.436 97.8595 158.436 96.2367C158.436 95.8805 158.308 95.2123 158.089 94.2973C157.865 93.3591 157.53 92.1021 157.086 90.5287C156.201 87.1103 155.316 83.2625 154.43 78.985C153.675 74.4467 153.296 68.9022 153.296 62.3462C153.296 49.7994 155.133 40.1705 158.758 33.4109L158.758 33.4096C162.528 26.3297 166.964 22.9497 172.024 22.9497C177.44 22.9497 182.325 27.0111 186.617 35.5442L186.62 35.5503C190.882 43.7419 193.036 55.3752 193.036 70.497C193.036 85.0316 190.823 98.4152 186.403 110.653L186.402 110.653C182.141 122.517 173.559 131.141 160.603 136.528C156.277 138.249 153.407 140.158 152.173 142.317C151.092 144.147 150.583 146.827 150.583 150.29C150.583 152.454 150.805 154.143 151.287 155.307C151.53 155.895 151.851 156.376 152.268 156.712C152.694 157.055 153.194 157.225 153.748 157.225C153.949 157.225 154.192 157.172 154.447 157.098C154.713 157.02 155.033 156.907 155.406 156.761C156.151 156.469 157.131 156.035 158.341 155.461L158.362 155.451L158.382 155.439C160.691 154.07 163.766 153.364 167.645 153.364C173.2 153.364 177.846 154.839 181.617 157.763C185.392 160.692 188.327 165.105 190.399 171.046L190.4 171.051C194.693 183 196.843 196.384 196.843 211.207C196.843 228.904 194.308 242.393 189.288 251.725L189.286 251.729C184.368 261.107 178.661 265.618 172.214 265.618C166.107 265.618 160.852 262.056 156.463 254.711C152.21 247.38 150.06 237.327 150.06 224.506C150.06 218.517 150.376 213.542 151.005 209.574C151.763 205.301 152.648 201.46 153.656 198.05C154.165 196.33 154.549 194.926 154.806 193.841C155.059 192.771 155.2 191.968 155.2 191.473C155.2 190.458 155.136 189.629 154.998 189.006C154.875 188.452 154.666 187.927 154.26 187.653C153.587 186.949 152.393 186.683 150.892 186.683C145.387 186.683 140.881 190.781 137.302 198.557C133.835 206.082 132.116 215.885 132.116 227.938C132.116 241.423 133.962 252.928 137.671 262.439Z" stroke="#DD978F" stroke-opacity="0.3"/>
</svg>
