<svg width="630" height="70" viewBox="0 0 630 70" fill="none" xmlns="http://www.w3.org/2000/svg">
<path d="M629 33.4998C629 33.4998 587.002 -11.6621 578.251 33.4192C569.5 78.5004 525.825 74.4704 527.502 33.3385C529.179 -7.79349 516.002 54 502.502 33.2987C489.002 12.5975 479.003 -25.5202 465.502 33.2399C452 92.0001 401.003 68.754 394.502 33.127C388 -2.49994 340.89 -15.235 331.502 33.0269C322.114 81.2888 300 5.55411e-05 265.502 32.922C231.003 65.8439 235.5 8.49972 222.002 32.8528C208.503 57.2059 205.002 58.104 190.002 32.8019C175.002 7.49991 144.848 1.5931 124.502 32.6978C103.805 53.2286 96.0045 49.3192 84.5005 32.6342C84.5005 32.6342 57.5005 -8.50011 44.0004 32.5078C30.5004 73.5158 17.186 8.77493 0.000455236 32.4998" stroke="#9C65E3" stroke-opacity="0.5"/>
</svg>
