<svg width="217" height="292" viewBox="0 0 217 292" fill="none" xmlns="http://www.w3.org/2000/svg">
<path d="M84.3956 30.0889C80.5636 20.28 75.6452 12.8804 69.6187 7.93144C63.5838 2.97557 56.4649 0.5 48.2856 0.5C40.0344 0.5 32.8621 3.05845 26.7929 8.17797C20.7326 13.2899 15.7984 20.9326 11.9674 31.0638C4.311 51.3115 0.5 82.2081 0.5 123.707L0.499988 171.588L0.500012 171.592C0.774853 211.284 4.7586 241.21 12.4834 261.326L12.4838 261.327C16.3493 271.329 21.275 278.873 27.283 283.92C33.2999 288.974 40.3773 291.5 48.4916 291.5C56.7108 291.5 63.8583 288.908 69.91 283.723C75.9523 278.546 80.8772 270.806 84.7075 260.547C92.3632 240.041 96.1742 208.758 96.1742 166.742L96.1742 120.218L96.1742 120.215C95.968 79.6219 92.0539 49.5633 84.3956 30.0889ZM84.3956 30.0889C84.3955 30.0888 84.3954 30.0886 84.3954 30.0884L83.93 30.2714L84.3958 30.0895C84.3957 30.0893 84.3956 30.0891 84.3956 30.0889ZM69.3409 51.5555L69.3414 51.5568C73.848 65.3048 76.1157 87.3363 76.1157 117.698V176.433C75.9096 205.887 73.5052 227.402 68.9304 241.021L68.9297 241.023C66.6773 247.831 63.8344 252.886 60.4262 256.235C57.0302 259.572 53.0595 261.229 48.4916 261.229C39.2814 261.229 32.2578 254.274 27.5394 239.863C22.8942 225.337 20.5585 202.85 20.5585 172.364V114.985C20.6958 86.3075 22.997 65.1125 27.4365 51.3608C29.6544 44.491 32.5139 39.389 35.9887 36.0092C39.4512 32.6412 43.542 30.9652 48.2856 30.9652C53.0632 30.9652 57.1884 32.6572 60.6856 36.0577C64.1949 39.47 67.0888 44.6208 69.3409 51.5555ZM195.381 4.68316V4.18316H194.881L191.482 4.18296L191.468 4.18335C179.722 4.50934 169.408 8.22868 160.546 15.3427C151.691 22.4514 144.308 32.9306 138.38 46.7453L138.379 46.7455C126.596 74.2353 120.723 113.99 120.723 165.967V179.73C120.723 212.466 125.192 239.291 134.156 260.181L134.156 260.182C143.113 280.926 154.883 291.5 169.539 291.5C183.949 291.5 195.352 282.593 203.779 265.048C212.271 247.508 216.5 224.163 216.5 195.044C216.5 167.605 212.58 145.171 204.712 127.767C196.913 110.365 186.373 101.496 173.041 101.496C159.727 101.496 149.163 109.456 141.32 125.13C142.858 97.2853 147.89 75.6451 156.378 60.171C165.106 44.2621 176.776 36.1299 191.387 35.6176H194.881H195.381V35.1176V4.68316ZM189.269 243.315L189.268 243.317C184.424 255.127 177.825 260.841 169.539 260.841C161.57 260.841 154.749 254.029 149.194 239.835C143.663 225.7 140.884 207.03 140.884 183.801V170.667C143.004 159.631 146.788 150.48 152.22 143.197C157.661 135.903 163.539 132.349 169.848 132.349C177.781 132.349 184.247 138.114 189.165 150.067L189.167 150.071C194.145 161.876 196.648 177.44 196.648 196.789C196.648 216.008 194.179 231.508 189.269 243.315Z" stroke="#DD978F" stroke-opacity="0.3"/>
</svg>
