<svg width="630" height="71" viewBox="0 0 630 71" fill="none" xmlns="http://www.w3.org/2000/svg">
<path d="M1.05032 33.6375C1.05032 33.6375 43.0485 -11.5244 51.7997 33.5569C60.5508 78.6381 104.226 74.6081 102.549 33.4762C100.872 -7.65579 114.049 54.1377 127.549 33.4364C141.049 12.7352 151.047 -25.3825 164.549 33.3776C178.051 92.1377 229.047 68.8917 235.549 33.2647C242.051 -2.36225 289.161 -15.0973 298.549 33.1646C307.937 81.4265 330.051 0.137751 364.549 33.0597C399.047 65.9816 394.551 8.63741 408.049 32.9905C421.547 57.3436 425.049 58.2417 440.049 32.9396C455.049 7.63761 485.203 1.7308 505.549 32.8355C526.246 53.3663 534.046 49.4569 545.55 32.7719C545.55 32.7719 572.55 -8.36241 586.05 32.6455C599.55 73.6535 612.865 8.91262 630.05 32.6375" stroke="#9C65E3" stroke-opacity="0.5"/>
</svg>
