<svg width="71" height="62" viewBox="0 0 71 62" fill="none" xmlns="http://www.w3.org/2000/svg">
<path d="M62.7539 4.5C66.0352 7.32552 68.2227 10.6979 69.3164 14.6172C70.4102 18.4453 70.4557 22.1367 69.4531 25.6914C68.4505 29.2461 66.7188 32.2995 64.2578 34.8516L40.332 59.1875C38.8737 60.6458 37.1419 61.375 35.1367 61.375C33.1315 61.375 31.3997 60.6458 29.9414 59.1875L6.01562 34.8516C3.55469 32.2995 1.82292 29.2461 0.820312 25.6914C-0.182292 22.0456 -0.136719 18.3086 0.957031 14.4805C2.05078 10.6523 4.23828 7.32552 7.51953 4.5C11.4388 1.21875 16.0417 -0.19401 21.3281 0.261719C26.7057 0.626302 31.3086 2.72266 35.1367 6.55078C38.9648 2.72266 43.5221 0.626302 48.8086 0.261719C54.1862 -0.19401 58.8346 1.21875 62.7539 4.5ZM59.6094 30.2031C62.2526 27.4688 63.5742 24.1419 63.5742 20.2227C63.5742 16.2122 61.9336 12.6576 58.6523 9.55859C55.918 7.37109 52.7279 6.41406 49.082 6.6875C45.5273 6.96094 42.474 8.41927 39.9219 11.0625L35.1367 15.8477L30.3516 11.0625C27.7995 8.41927 24.7005 6.96094 21.0547 6.6875C17.5 6.41406 14.3555 7.37109 11.6211 9.55859C8.33984 12.6576 6.69922 16.2122 6.69922 20.2227C6.69922 24.1419 8.02083 27.4688 10.6641 30.2031L34.7266 54.5391C35 54.9036 35.2734 54.9036 35.5469 54.5391L59.6094 30.2031Z" fill="#DD978F"/>
</svg>
